<svg width="153" height="293" viewBox="0 0 153 293" fill="none" xmlns="http://www.w3.org/2000/svg">
<rect width="153" height="293" rx="20" fill="#ADBEB9"/>
<circle cx="60" cy="22" r="4" fill="white"/>
<rect x="69" y="18" width="28" height="8" rx="4" fill="white"/>
<rect x="11" y="36" width="131" height="212" fill="white"/>
<circle cx="77" cy="268" r="14" fill="white"/>
<rect x="18.9863" y="111.167" width="114.458" height="3.41667" rx="1.70833" fill="#C4C4C4"/>
<rect x="18.9863" y="116.861" width="102.5" height="3.41667" rx="1.70833" fill="#C4C4C4"/>
<rect x="18.9863" y="122.555" width="92.8194" height="3.41667" rx="1.70833" fill="#C4C4C4"/>
<rect x="18.9863" y="128.25" width="63.7778" height="3.41667" rx="1.70833" fill="#C4C4C4"/>
<rect x="18.9863" y="133.945" width="63.7778" height="3.41667" rx="1.70833" fill="#C4C4C4"/>
<rect x="15" y="41" width="123" height="65.4861" fill="#F0F0F0"/>
<path d="M67 62.5L53 86H101L89 73L79.5 81L67 62.5Z" fill="#C4C4C4"/>
<circle cx="91.4615" cy="64.4615" r="3.46154" fill="#C4C4C4"/>
<rect x="15" y="222" width="123" height="26" fill="#F0F0F0"/>
<rect x="45" y="150" width="64" height="64" fill="#2DBC9F"/>
<path d="M53.6396 186V178.67H55.4796C56.5996 178.67 57.4563 178.987 58.0496 179.62C58.643 180.247 58.9396 181.143 58.9396 182.31C58.9396 183.477 58.6463 184.38 58.0596 185.02C57.4663 185.673 56.6196 186 55.5196 186H53.6396ZM54.5696 185.24H55.3996C56.253 185.24 56.8996 184.983 57.3396 184.47C57.7663 183.97 57.9796 183.25 57.9796 182.31C57.9796 181.37 57.7663 180.657 57.3396 180.17C56.8996 179.67 56.253 179.42 55.3996 179.42H54.5696V185.24ZM60.4249 186V180.57H61.3349V186H60.4249ZM60.8849 179.45C60.7049 179.45 60.5549 179.393 60.4349 179.28C60.3149 179.167 60.2549 179.027 60.2549 178.86C60.2549 178.68 60.3115 178.537 60.4249 178.43C60.5449 178.323 60.6982 178.27 60.8849 178.27C61.0715 178.27 61.2215 178.323 61.3349 178.43C61.4549 178.537 61.5149 178.68 61.5149 178.86C61.5149 179.027 61.4549 179.167 61.3349 179.28C61.2149 179.393 61.0649 179.45 60.8849 179.45ZM64.5988 186.13C64.2255 186.13 63.8555 186.06 63.4888 185.92C63.1488 185.787 62.8421 185.607 62.5688 185.38L63.0188 184.78C63.5455 185.207 64.0821 185.42 64.6288 185.42C64.9755 185.42 65.2455 185.337 65.4388 185.17C65.6121 185.017 65.6988 184.817 65.6988 184.57C65.6988 184.323 65.5688 184.11 65.3088 183.93C65.1488 183.823 64.8655 183.693 64.4588 183.54C63.9588 183.353 63.5955 183.17 63.3688 182.99C63.0155 182.717 62.8388 182.377 62.8388 181.97C62.8388 181.523 63.0021 181.16 63.3288 180.88C63.6755 180.58 64.1355 180.43 64.7088 180.43C65.3088 180.43 65.8721 180.633 66.3988 181.04L65.9588 181.63C65.5255 181.31 65.1088 181.15 64.7088 181.15C64.3888 181.15 64.1388 181.227 63.9588 181.38C63.7988 181.52 63.7188 181.703 63.7188 181.93C63.7188 182.15 63.8288 182.333 64.0488 182.48C64.1888 182.573 64.4455 182.69 64.8188 182.83C64.8655 182.85 64.9021 182.863 64.9288 182.87L64.9388 182.88C65.4721 183.08 65.8455 183.263 66.0588 183.43C66.4055 183.703 66.5788 184.067 66.5788 184.52C66.5788 184.98 66.4088 185.357 66.0688 185.65C65.7088 185.97 65.2188 186.13 64.5988 186.13ZM67.8565 188.29V180.57H68.6065L68.6865 181.19H68.7165C69.3365 180.683 69.9132 180.43 70.4465 180.43C71.1332 180.43 71.6699 180.683 72.0565 181.19C72.4232 181.677 72.6065 182.347 72.6065 183.2C72.6065 184.093 72.3699 184.813 71.8965 185.36C71.4499 185.873 70.8999 186.13 70.2465 186.13C69.7599 186.13 69.2599 185.92 68.7465 185.5L68.7665 186.45V188.29H67.8565ZM70.0965 185.37C70.5565 185.37 70.9299 185.18 71.2165 184.8C71.5099 184.4 71.6565 183.87 71.6565 183.21C71.6565 181.87 71.1799 181.2 70.2265 181.2C69.7932 181.2 69.3065 181.45 68.7665 181.95V184.8C69.2132 185.18 69.6565 185.37 70.0965 185.37ZM75.0177 186.13C74.3777 186.13 74.0577 185.727 74.0577 184.92V178.04H74.9677V184.98C74.9677 185.24 75.0544 185.37 75.2277 185.37C75.2877 185.37 75.351 185.363 75.4177 185.35L75.5477 186.05C75.4077 186.103 75.231 186.13 75.0177 186.13ZM78.1593 186.13C77.6926 186.13 77.3126 185.997 77.0193 185.73C76.7193 185.45 76.5693 185.07 76.5693 184.59C76.5693 184.003 76.8359 183.55 77.3693 183.23C77.8959 182.917 78.7426 182.693 79.9093 182.56C79.9093 181.647 79.5359 181.19 78.7893 181.19C78.2759 181.19 77.7326 181.383 77.1593 181.77L76.7993 181.14C77.5393 180.667 78.2526 180.43 78.9393 180.43C79.5793 180.43 80.0593 180.633 80.3793 181.04C80.6726 181.42 80.8193 181.96 80.8193 182.66V186H80.0693L79.9893 185.35H79.9593C79.3326 185.87 78.7326 186.13 78.1593 186.13ZM78.4193 185.4C78.6726 185.4 78.9226 185.34 79.1693 185.22C79.3826 185.107 79.6293 184.927 79.9093 184.68V183.16C79.0226 183.267 78.3859 183.433 77.9993 183.66C77.6393 183.873 77.4593 184.163 77.4593 184.53C77.4593 184.823 77.5526 185.047 77.7393 185.2C77.9059 185.333 78.1326 185.4 78.4193 185.4ZM82.6438 188.34C82.3971 188.34 82.1838 188.303 82.0038 188.23L82.1838 187.5C82.3505 187.56 82.4871 187.59 82.5938 187.59C83.1605 187.59 83.5705 187.2 83.8238 186.42L83.9438 186.01L81.7638 180.57H82.7138L83.8238 183.59C83.8371 183.637 83.8605 183.703 83.8938 183.79C84.0938 184.39 84.2438 184.83 84.3438 185.11H84.3938C84.4338 184.97 84.4971 184.757 84.5838 184.47C84.7038 184.07 84.7938 183.777 84.8538 183.59L85.8238 180.57H86.7138L84.6638 186.45C84.4505 187.043 84.2005 187.493 83.9138 187.8C83.5671 188.16 83.1438 188.34 82.6438 188.34ZM89.115 186L91.605 178.67H92.635L95.125 186H94.145L93.445 183.76H90.765L90.055 186H89.115ZM90.995 183.02H93.215L92.865 181.9C92.665 181.28 92.4183 180.453 92.125 179.42H92.085C91.905 180.1 91.6616 180.927 91.355 181.9L90.995 183.02ZM97.9292 186.13C97.2425 186.13 96.6992 185.883 96.2992 185.39C95.8925 184.883 95.6892 184.183 95.6892 183.29C95.6892 182.437 95.9258 181.74 96.3992 181.2C96.8458 180.687 97.3925 180.43 98.0392 180.43C98.3392 180.43 98.6158 180.487 98.8692 180.6C99.0692 180.693 99.3025 180.85 99.5692 181.07L99.5192 180.13V178.04H100.429V186H99.6892L99.5992 185.36H99.5792C99.0525 185.873 98.5025 186.13 97.9292 186.13ZM97.0192 184.82C97.2792 185.187 97.6492 185.37 98.1292 185.37C98.6092 185.37 99.0725 185.12 99.5192 184.62V181.77C99.0925 181.39 98.6525 181.2 98.1992 181.2C97.7525 181.2 97.3825 181.39 97.0892 181.77C96.7825 182.163 96.6292 182.667 96.6292 183.28C96.6292 183.94 96.7592 184.453 97.0192 184.82Z" fill="#EBF0F2"/>
</svg>
