<svg width="177" height="99" viewBox="0 0 177 99" fill="none" xmlns="http://www.w3.org/2000/svg">
<rect width="177" height="99" rx="2" fill="#2DBC9F"/>
<path d="M28.232 52V49.15L26.032 44.67H27.022L27.962 46.74C28.002 46.8267 28.0553 46.95 28.122 47.11C28.362 47.65 28.5487 48.06 28.682 48.34H28.722C28.7487 48.28 28.792 48.1867 28.852 48.06C29.132 47.48 29.332 47.04 29.452 46.74L30.402 44.67H31.362L29.162 49.15V52H28.232ZM33.9255 52.13C33.2255 52.13 32.6388 51.88 32.1655 51.38C31.6588 50.8533 31.4055 50.1567 31.4055 49.29C31.4055 48.4167 31.6588 47.7133 32.1655 47.18C32.6388 46.68 33.2255 46.43 33.9255 46.43C34.6255 46.43 35.2122 46.68 35.6855 47.18C36.1922 47.7133 36.4455 48.4167 36.4455 49.29C36.4455 50.1567 36.1922 50.8533 35.6855 51.38C35.2122 51.88 34.6255 52.13 33.9255 52.13ZM32.7855 50.8C33.0722 51.18 33.4522 51.37 33.9255 51.37C34.3988 51.37 34.7788 51.18 35.0655 50.8C35.3588 50.42 35.5055 49.9167 35.5055 49.29C35.5055 48.6633 35.3588 48.1567 35.0655 47.77C34.7788 47.3833 34.3988 47.19 33.9255 47.19C33.4588 47.19 33.0788 47.3833 32.7855 47.77C32.4988 48.1567 32.3555 48.6633 32.3555 49.29C32.3555 49.9167 32.4988 50.42 32.7855 50.8ZM39.46 52.13C38.36 52.13 37.81 51.4233 37.81 50.01V46.57H38.72V49.9C38.72 50.4067 38.8 50.7733 38.96 51C39.12 51.2267 39.38 51.34 39.74 51.34C40.0133 51.34 40.2633 51.2667 40.49 51.12C40.7033 50.9867 40.9433 50.7533 41.21 50.42V46.57H42.12V52H41.36L41.29 51.15H41.26C40.9866 51.47 40.7166 51.7067 40.45 51.86C40.1433 52.04 39.8133 52.13 39.46 52.13ZM43.9542 52V46.57H44.7042L44.7842 47.56H44.8142C45.0075 47.2067 45.2342 46.9333 45.4942 46.74C45.7675 46.5333 46.0542 46.43 46.3542 46.43C46.5875 46.43 46.7808 46.47 46.9342 46.55L46.7642 47.35C46.6108 47.29 46.4342 47.26 46.2342 47.26C45.9808 47.26 45.7408 47.3533 45.5142 47.54C45.2475 47.7533 45.0308 48.0767 44.8642 48.51V52H43.9542ZM51.3175 52.13C50.8508 52.13 50.4708 51.9967 50.1775 51.73C49.8775 51.45 49.7275 51.07 49.7275 50.59C49.7275 50.0033 49.9941 49.55 50.5275 49.23C51.0541 48.9167 51.9008 48.6933 53.0675 48.56C53.0675 47.6467 52.6941 47.19 51.9475 47.19C51.4341 47.19 50.8908 47.3833 50.3175 47.77L49.9575 47.14C50.6975 46.6667 51.4108 46.43 52.0975 46.43C52.7375 46.43 53.2175 46.6333 53.5375 47.04C53.8308 47.42 53.9775 47.96 53.9775 48.66V52H53.2275L53.1475 51.35H53.1175C52.4908 51.87 51.8908 52.13 51.3175 52.13ZM51.5775 51.4C51.8308 51.4 52.0808 51.34 52.3275 51.22C52.5408 51.1067 52.7875 50.9267 53.0675 50.68V49.16C52.1808 49.2667 51.5441 49.4333 51.1575 49.66C50.7975 49.8733 50.6175 50.1633 50.6175 50.53C50.6175 50.8233 50.7108 51.0467 50.8975 51.2C51.0641 51.3333 51.2908 51.4 51.5775 51.4ZM57.562 52.13C56.8753 52.13 56.332 51.8833 55.932 51.39C55.5253 50.8833 55.322 50.1833 55.322 49.29C55.322 48.4367 55.5587 47.74 56.032 47.2C56.4787 46.6867 57.0253 46.43 57.672 46.43C57.972 46.43 58.2487 46.4867 58.502 46.6C58.702 46.6933 58.9353 46.85 59.202 47.07L59.152 46.13V44.04H60.062V52H59.322L59.232 51.36H59.212C58.6853 51.8733 58.1353 52.13 57.562 52.13ZM56.652 50.82C56.912 51.1867 57.282 51.37 57.762 51.37C58.242 51.37 58.7053 51.12 59.152 50.62V47.77C58.7253 47.39 58.2853 47.2 57.832 47.2C57.3853 47.2 57.0153 47.39 56.722 47.77C56.4153 48.1633 56.262 48.6667 56.262 49.28C56.262 49.94 56.392 50.4533 56.652 50.82ZM65.0095 52L63.4995 46.57H64.4295L65.2395 49.71C65.2595 49.8167 65.2928 49.9767 65.3395 50.19C65.4395 50.65 65.5128 50.9967 65.5595 51.23H65.6095C65.6295 51.1567 65.6562 51.0467 65.6895 50.9C65.8095 50.3733 65.9062 49.9767 65.9795 49.71L66.8195 46.57H67.7095L68.5595 49.71C68.5862 49.8233 68.6295 49.9967 68.6895 50.23C68.7962 50.67 68.8795 51.0033 68.9395 51.23H68.9795C69.0195 51.05 69.0795 50.78 69.1595 50.42C69.2262 50.1067 69.2795 49.87 69.3195 49.71L70.1195 46.57H70.9795L69.5195 52H68.4195L67.6295 49.07C67.5695 48.8433 67.4862 48.5 67.3795 48.04C67.3262 47.8067 67.2862 47.63 67.2595 47.51H67.2095C67.2028 47.5233 67.1962 47.5467 67.1895 47.58C67.0428 48.2533 66.9262 48.7567 66.8395 49.09L66.0795 52H65.0095ZM72.1671 52V46.57H73.0771V52H72.1671ZM72.6271 45.45C72.4471 45.45 72.2971 45.3933 72.1771 45.28C72.0571 45.1667 71.9971 45.0267 71.9971 44.86C71.9971 44.68 72.0537 44.5367 72.1671 44.43C72.2871 44.3233 72.4404 44.27 72.6271 44.27C72.8137 44.27 72.9637 44.3233 73.0771 44.43C73.1971 44.5367 73.2571 44.68 73.2571 44.86C73.2571 45.0267 73.1971 45.1667 73.0771 45.28C72.9571 45.3933 72.8071 45.45 72.6271 45.45ZM75.881 52.13C75.241 52.13 74.921 51.7267 74.921 50.92V44.04H75.831V50.98C75.831 51.24 75.9176 51.37 76.091 51.37C76.151 51.37 76.2143 51.3633 76.281 51.35L76.411 52.05C76.271 52.1033 76.0943 52.13 75.881 52.13ZM78.7325 52.13C78.0925 52.13 77.7725 51.7267 77.7725 50.92V44.04H78.6825V50.98C78.6825 51.24 78.7692 51.37 78.9425 51.37C79.0025 51.37 79.0659 51.3633 79.1325 51.35L79.2625 52.05C79.1225 52.1033 78.9459 52.13 78.7325 52.13ZM85.2504 52.13C84.7171 52.13 84.2004 51.9 83.7004 51.44H83.6704L83.5904 52H82.8604V44.04H83.7704V46.22L83.7404 47.2C84.3271 46.6867 84.8938 46.43 85.4404 46.43C86.1338 46.43 86.6704 46.6833 87.0504 47.19C87.4238 47.6767 87.6104 48.3433 87.6104 49.19C87.6104 50.09 87.3738 50.8133 86.9004 51.36C86.4538 51.8733 85.9038 52.13 85.2504 52.13ZM85.1004 51.37C85.5604 51.37 85.9338 51.18 86.2204 50.8C86.5138 50.4 86.6604 49.87 86.6604 49.21C86.6604 47.87 86.1838 47.2 85.2304 47.2C84.7904 47.2 84.3038 47.45 83.7704 47.95V50.8C84.2038 51.18 84.6471 51.37 85.1004 51.37ZM91.2321 52.13C90.4854 52.13 89.8721 51.88 89.3921 51.38C88.8854 50.8533 88.6321 50.1567 88.6321 49.29C88.6321 48.4433 88.8821 47.7467 89.3821 47.2C89.8554 46.6867 90.4221 46.43 91.0821 46.43C91.7621 46.43 92.2954 46.66 92.6821 47.12C93.0554 47.5733 93.2421 48.1933 93.2421 48.98C93.2421 49.1533 93.2287 49.3267 93.2021 49.5H89.5421C89.5687 50.08 89.7454 50.5433 90.0721 50.89C90.4054 51.23 90.8287 51.4 91.3421 51.4C91.8221 51.4 92.2754 51.2567 92.7021 50.97L93.0321 51.57C92.4521 51.9433 91.8521 52.13 91.2321 52.13ZM89.5321 48.85H92.4421C92.4421 48.3033 92.3221 47.8867 92.0821 47.6C91.8487 47.3067 91.5187 47.16 91.0921 47.16C90.6921 47.16 90.3487 47.3067 90.0621 47.6C89.7621 47.9133 89.5854 48.33 89.5321 48.85ZM98.2355 52.13C97.8622 52.13 97.4922 52.06 97.1255 51.92C96.7855 51.7867 96.4788 51.6067 96.2055 51.38L96.6555 50.78C97.1822 51.2067 97.7188 51.42 98.2655 51.42C98.6122 51.42 98.8822 51.3367 99.0755 51.17C99.2488 51.0167 99.3355 50.8167 99.3355 50.57C99.3355 50.3233 99.2055 50.11 98.9455 49.93C98.7855 49.8233 98.5022 49.6933 98.0955 49.54C97.5955 49.3533 97.2322 49.17 97.0055 48.99C96.6522 48.7167 96.4755 48.3767 96.4755 47.97C96.4755 47.5233 96.6388 47.16 96.9655 46.88C97.3122 46.58 97.7722 46.43 98.3455 46.43C98.9455 46.43 99.5088 46.6333 100.036 47.04L99.5955 47.63C99.1622 47.31 98.7455 47.15 98.3455 47.15C98.0255 47.15 97.7755 47.2267 97.5955 47.38C97.4355 47.52 97.3555 47.7033 97.3555 47.93C97.3555 48.15 97.4655 48.3333 97.6855 48.48C97.8255 48.5733 98.0822 48.69 98.4555 48.83C98.5022 48.85 98.5388 48.8633 98.5655 48.87L98.5755 48.88C99.1088 49.08 99.4822 49.2633 99.6955 49.43C100.042 49.7033 100.216 50.0667 100.216 50.52C100.216 50.98 100.046 51.3567 99.7055 51.65C99.3455 51.97 98.8555 52.13 98.2355 52.13ZM101.493 52V44.04H102.403V46.22L102.373 47.34C102.98 46.7333 103.58 46.43 104.173 46.43C105.28 46.43 105.833 47.14 105.833 48.56V52H104.923V48.68C104.923 48.1733 104.84 47.8067 104.673 47.58C104.513 47.3467 104.253 47.23 103.893 47.23C103.627 47.23 103.377 47.3 103.143 47.44C102.95 47.5533 102.703 47.76 102.403 48.06V52H101.493ZM109.677 52.13C108.977 52.13 108.391 51.88 107.917 51.38C107.411 50.8533 107.157 50.1567 107.157 49.29C107.157 48.4167 107.411 47.7133 107.917 47.18C108.391 46.68 108.977 46.43 109.677 46.43C110.377 46.43 110.964 46.68 111.437 47.18C111.944 47.7133 112.197 48.4167 112.197 49.29C112.197 50.1567 111.944 50.8533 111.437 51.38C110.964 51.88 110.377 52.13 109.677 52.13ZM108.537 50.8C108.824 51.18 109.204 51.37 109.677 51.37C110.151 51.37 110.531 51.18 110.817 50.8C111.111 50.42 111.257 49.9167 111.257 49.29C111.257 48.6633 111.111 48.1567 110.817 47.77C110.531 47.3833 110.151 47.19 109.677 47.19C109.211 47.19 108.831 47.3833 108.537 47.77C108.251 48.1567 108.107 48.6633 108.107 49.29C108.107 49.9167 108.251 50.42 108.537 50.8ZM114.453 52L112.943 46.57H113.873L114.683 49.71C114.703 49.8167 114.736 49.9767 114.783 50.19C114.883 50.65 114.956 50.9967 115.003 51.23H115.053C115.073 51.1567 115.1 51.0467 115.133 50.9C115.253 50.3733 115.35 49.9767 115.423 49.71L116.263 46.57H117.153L118.003 49.71C118.03 49.8233 118.073 49.9967 118.133 50.23C118.24 50.67 118.323 51.0033 118.383 51.23H118.423C118.463 51.05 118.523 50.78 118.603 50.42C118.67 50.1067 118.723 49.87 118.763 49.71L119.563 46.57H120.423L118.963 52H117.863L117.073 49.07C117.013 48.8433 116.93 48.5 116.823 48.04C116.77 47.8067 116.73 47.63 116.703 47.51H116.653C116.646 47.5233 116.64 47.5467 116.633 47.58C116.486 48.2533 116.37 48.7567 116.283 49.09L115.523 52H114.453ZM121.61 52V46.57H122.36L122.44 47.35H122.47C122.77 47.0567 123.047 46.84 123.3 46.7C123.62 46.52 123.95 46.43 124.29 46.43C125.397 46.43 125.95 47.14 125.95 48.56V52H125.04V48.68C125.04 48.1733 124.957 47.8067 124.79 47.58C124.63 47.3467 124.37 47.23 124.01 47.23C123.744 47.23 123.494 47.3 123.26 47.44C123.067 47.5533 122.82 47.76 122.52 48.06V52H121.61ZM129.96 52V44.04H130.87V46.22L130.84 47.34C131.447 46.7333 132.047 46.43 132.64 46.43C133.747 46.43 134.3 47.14 134.3 48.56V52H133.39V48.68C133.39 48.1733 133.307 47.8067 133.14 47.58C132.98 47.3467 132.72 47.23 132.36 47.23C132.093 47.23 131.843 47.3 131.61 47.44C131.417 47.5533 131.17 47.76 130.87 48.06V52H129.96ZM138.224 52.13C137.478 52.13 136.864 51.88 136.384 51.38C135.878 50.8533 135.624 50.1567 135.624 49.29C135.624 48.4433 135.874 47.7467 136.374 47.2C136.848 46.6867 137.414 46.43 138.074 46.43C138.754 46.43 139.288 46.66 139.674 47.12C140.048 47.5733 140.234 48.1933 140.234 48.98C140.234 49.1533 140.221 49.3267 140.194 49.5H136.534C136.561 50.08 136.738 50.5433 137.064 50.89C137.398 51.23 137.821 51.4 138.334 51.4C138.814 51.4 139.268 51.2567 139.694 50.97L140.024 51.57C139.444 51.9433 138.844 52.13 138.224 52.13ZM136.524 48.85H139.434C139.434 48.3033 139.314 47.8867 139.074 47.6C138.841 47.3067 138.511 47.16 138.084 47.16C137.684 47.16 137.341 47.3067 137.054 47.6C136.754 47.9133 136.578 48.33 136.524 48.85ZM141.571 52V46.57H142.321L142.401 47.56H142.431C142.625 47.2067 142.851 46.9333 143.111 46.74C143.385 46.5333 143.671 46.43 143.971 46.43C144.205 46.43 144.398 46.47 144.551 46.55L144.381 47.35C144.228 47.29 144.051 47.26 143.851 47.26C143.598 47.26 143.358 47.3533 143.131 47.54C142.865 47.7533 142.648 48.0767 142.481 48.51V52H141.571ZM147.531 52.13C146.784 52.13 146.171 51.88 145.691 51.38C145.184 50.8533 144.931 50.1567 144.931 49.29C144.931 48.4433 145.181 47.7467 145.681 47.2C146.154 46.6867 146.721 46.43 147.381 46.43C148.061 46.43 148.594 46.66 148.981 47.12C149.354 47.5733 149.541 48.1933 149.541 48.98C149.541 49.1533 149.528 49.3267 149.501 49.5H145.841C145.868 50.08 146.044 50.5433 146.371 50.89C146.704 51.23 147.128 51.4 147.641 51.4C148.121 51.4 148.574 51.2567 149.001 50.97L149.331 51.57C148.751 51.9433 148.151 52.13 147.531 52.13ZM145.831 48.85H148.741C148.741 48.3033 148.621 47.8867 148.381 47.6C148.148 47.3067 147.818 47.16 147.391 47.16C146.991 47.16 146.648 47.3067 146.361 47.6C146.061 47.9133 145.884 48.33 145.831 48.85Z" fill="#EBF0F2"/>
</svg>
