<svg width="153" height="293" viewBox="0 0 153 293" fill="none" xmlns="http://www.w3.org/2000/svg">
<rect width="153" height="293" rx="20" fill="#ADBEB9"/>
<rect x="11" y="36" width="131" height="212" fill="white"/>
<circle cx="60" cy="22" r="4" fill="white"/>
<rect x="69" y="18" width="28" height="8" rx="4" fill="white"/>
<circle cx="77" cy="268" r="14" fill="white"/>
<rect x="15" y="85" width="60" height="60" fill="#2DBC9F"/>
<path d="M21.6396 119V111.67H23.4796C24.5996 111.67 25.4563 111.987 26.0496 112.62C26.643 113.247 26.9396 114.143 26.9396 115.31C26.9396 116.477 26.6463 117.38 26.0596 118.02C25.4663 118.673 24.6196 119 23.5196 119H21.6396ZM22.5696 118.24H23.3996C24.253 118.24 24.8996 117.983 25.3396 117.47C25.7663 116.97 25.9796 116.25 25.9796 115.31C25.9796 114.37 25.7663 113.657 25.3396 113.17C24.8996 112.67 24.253 112.42 23.3996 112.42H22.5696V118.24ZM28.4249 119V113.57H29.3349V119H28.4249ZM28.8849 112.45C28.7049 112.45 28.5549 112.393 28.4349 112.28C28.3149 112.167 28.2549 112.027 28.2549 111.86C28.2549 111.68 28.3115 111.537 28.4249 111.43C28.5449 111.323 28.6982 111.27 28.8849 111.27C29.0715 111.27 29.2215 111.323 29.3349 111.43C29.4549 111.537 29.5149 111.68 29.5149 111.86C29.5149 112.027 29.4549 112.167 29.3349 112.28C29.2149 112.393 29.0649 112.45 28.8849 112.45ZM32.5988 119.13C32.2255 119.13 31.8555 119.06 31.4888 118.92C31.1488 118.787 30.8421 118.607 30.5688 118.38L31.0188 117.78C31.5455 118.207 32.0821 118.42 32.6288 118.42C32.9755 118.42 33.2455 118.337 33.4388 118.17C33.6121 118.017 33.6988 117.817 33.6988 117.57C33.6988 117.323 33.5688 117.11 33.3088 116.93C33.1488 116.823 32.8655 116.693 32.4588 116.54C31.9588 116.353 31.5955 116.17 31.3688 115.99C31.0155 115.717 30.8388 115.377 30.8388 114.97C30.8388 114.523 31.0021 114.16 31.3288 113.88C31.6755 113.58 32.1355 113.43 32.7088 113.43C33.3088 113.43 33.8721 113.633 34.3988 114.04L33.9588 114.63C33.5255 114.31 33.1088 114.15 32.7088 114.15C32.3888 114.15 32.1388 114.227 31.9588 114.38C31.7988 114.52 31.7188 114.703 31.7188 114.93C31.7188 115.15 31.8288 115.333 32.0488 115.48C32.1888 115.573 32.4455 115.69 32.8188 115.83C32.8655 115.85 32.9021 115.863 32.9288 115.87L32.9388 115.88C33.4721 116.08 33.8455 116.263 34.0588 116.43C34.4055 116.703 34.5788 117.067 34.5788 117.52C34.5788 117.98 34.4088 118.357 34.0688 118.65C33.7088 118.97 33.2188 119.13 32.5988 119.13ZM35.8565 121.29V113.57H36.6065L36.6865 114.19H36.7165C37.3365 113.683 37.9132 113.43 38.4465 113.43C39.1332 113.43 39.6699 113.683 40.0565 114.19C40.4232 114.677 40.6065 115.347 40.6065 116.2C40.6065 117.093 40.3699 117.813 39.8965 118.36C39.4499 118.873 38.8999 119.13 38.2465 119.13C37.7599 119.13 37.2599 118.92 36.7465 118.5L36.7665 119.45V121.29H35.8565ZM38.0965 118.37C38.5565 118.37 38.9299 118.18 39.2165 117.8C39.5099 117.4 39.6565 116.87 39.6565 116.21C39.6565 114.87 39.1799 114.2 38.2265 114.2C37.7932 114.2 37.3065 114.45 36.7665 114.95V117.8C37.2132 118.18 37.6565 118.37 38.0965 118.37ZM43.0177 119.13C42.3777 119.13 42.0577 118.727 42.0577 117.92V111.04H42.9677V117.98C42.9677 118.24 43.0544 118.37 43.2277 118.37C43.2877 118.37 43.351 118.363 43.4177 118.35L43.5477 119.05C43.4077 119.103 43.231 119.13 43.0177 119.13ZM46.1593 119.13C45.6926 119.13 45.3126 118.997 45.0193 118.73C44.7193 118.45 44.5693 118.07 44.5693 117.59C44.5693 117.003 44.8359 116.55 45.3693 116.23C45.8959 115.917 46.7426 115.693 47.9093 115.56C47.9093 114.647 47.5359 114.19 46.7893 114.19C46.2759 114.19 45.7326 114.383 45.1593 114.77L44.7993 114.14C45.5393 113.667 46.2526 113.43 46.9393 113.43C47.5793 113.43 48.0593 113.633 48.3793 114.04C48.6726 114.42 48.8193 114.96 48.8193 115.66V119H48.0693L47.9893 118.35H47.9593C47.3326 118.87 46.7326 119.13 46.1593 119.13ZM46.4193 118.4C46.6726 118.4 46.9226 118.34 47.1693 118.22C47.3826 118.107 47.6293 117.927 47.9093 117.68V116.16C47.0226 116.267 46.3859 116.433 45.9993 116.66C45.6393 116.873 45.4593 117.163 45.4593 117.53C45.4593 117.823 45.5526 118.047 45.7393 118.2C45.9059 118.333 46.1326 118.4 46.4193 118.4ZM50.6438 121.34C50.3971 121.34 50.1838 121.303 50.0038 121.23L50.1838 120.5C50.3505 120.56 50.4871 120.59 50.5938 120.59C51.1605 120.59 51.5705 120.2 51.8238 119.42L51.9438 119.01L49.7638 113.57H50.7138L51.8238 116.59C51.8371 116.637 51.8605 116.703 51.8938 116.79C52.0938 117.39 52.2438 117.83 52.3438 118.11H52.3938C52.4338 117.97 52.4971 117.757 52.5838 117.47C52.7038 117.07 52.7938 116.777 52.8538 116.59L53.8238 113.57H54.7138L52.6638 119.45C52.4505 120.043 52.2005 120.493 51.9138 120.8C51.5671 121.16 51.1438 121.34 50.6438 121.34ZM57.115 119L59.605 111.67H60.635L63.125 119H62.145L61.445 116.76H58.765L58.055 119H57.115ZM58.995 116.02H61.215L60.865 114.9C60.665 114.28 60.4183 113.453 60.125 112.42H60.085C59.905 113.1 59.6616 113.927 59.355 114.9L58.995 116.02ZM65.9292 119.13C65.2425 119.13 64.6992 118.883 64.2992 118.39C63.8925 117.883 63.6892 117.183 63.6892 116.29C63.6892 115.437 63.9258 114.74 64.3992 114.2C64.8458 113.687 65.3925 113.43 66.0392 113.43C66.3392 113.43 66.6158 113.487 66.8692 113.6C67.0692 113.693 67.3025 113.85 67.5692 114.07L67.5192 113.13V111.04H68.4292V119H67.6892L67.5992 118.36H67.5792C67.0525 118.873 66.5025 119.13 65.9292 119.13ZM65.0192 117.82C65.2792 118.187 65.6492 118.37 66.1292 118.37C66.6092 118.37 67.0725 118.12 67.5192 117.62V114.77C67.0925 114.39 66.6525 114.2 66.1992 114.2C65.7525 114.2 65.3825 114.39 65.0892 114.77C64.7825 115.163 64.6292 115.667 64.6292 116.28C64.6292 116.94 64.7592 117.453 65.0192 117.82Z" fill="#EBF0F2"/>
<rect x="78.6924" y="85" width="60" height="60" fill="#F0F0F0"/>
<path d="M102.249 108.095L93.4616 122.846H123.591L116.059 114.686L110.095 119.708L102.249 108.095Z" fill="#C4C4C4"/>
<circle cx="117.604" cy="109.327" r="2.17278" fill="#C4C4C4"/>
<rect x="15" y="149" width="60" height="60" fill="#F0F0F0"/>
<path d="M38.5569 172.095L29.7692 186.846H59.8984L52.3661 178.686L46.403 183.708L38.5569 172.095Z" fill="#C4C4C4"/>
<circle cx="53.9112" cy="173.327" r="2.17278" fill="#C4C4C4"/>
<rect x="78.6924" y="149" width="60" height="60" fill="#F0F0F0"/>
<path d="M102.249 172.095L93.4616 186.846H123.591L116.059 178.686L110.095 183.708L102.249 172.095Z" fill="#C4C4C4"/>
<circle cx="117.604" cy="173.327" r="2.17278" fill="#C4C4C4"/>
<rect x="15" y="213" width="60" height="35" fill="#F0F0F0"/>
<rect x="78.6924" y="213" width="60" height="35" fill="#F0F0F0"/>
<rect x="15" y="41" width="123" height="18" rx="2" fill="#F0F0F0"/>
<path fill-rule="evenodd" clip-rule="evenodd" d="M28.2355 50.9396H28.5647L30.6438 53.0229L30.023 53.6438L27.9397 51.5646V51.2354L27.8272 51.1188C27.3522 51.5271 26.7355 51.7729 26.0647 51.7729C24.5688 51.7729 23.3563 50.5604 23.3563 49.0646C23.3563 47.5688 24.5688 46.3563 26.0647 46.3563C27.5605 46.3563 28.773 47.5688 28.773 49.0646C28.773 49.7354 28.5272 50.3521 28.1188 50.8271L28.2355 50.9396ZM24.1897 49.0646C24.1897 50.1021 25.0272 50.9396 26.0647 50.9396C27.1022 50.9396 27.9397 50.1021 27.9397 49.0646C27.9397 48.0271 27.1022 47.1896 26.0647 47.1896C25.0272 47.1896 24.1897 48.0271 24.1897 49.0646Z" fill="#464B4A"/>
<rect x="36" y="48" width="8" height="3" rx="1.5" fill="#C4C4C4"/>
<rect x="35" y="70" width="18" height="4" rx="2" fill="#C4C4C4"/>
<rect x="100" y="70" width="18" height="4" rx="2" fill="#C4C4C4"/>
<rect opacity="0.1" x="11" y="81" width="131" height="1" fill="#ADBEB9"/>
<rect x="11" y="80" width="65" height="1" fill="#2DBC9F"/>
<rect x="46" y="48" width="8" height="3" rx="1.5" fill="#C4C4C4"/>
</svg>
